<svg xmlns="http://www.w3.org/2000/svg" style="display: none;">
    <symbol id="icon-reload" viewBox="0 0 1024 1024">
 		<path fill="currentColor" d="M512 139.636364V0l-186.181818 186.181818 186.181818 186.181818v-139.636363c153.6 0 279.272727 125.672727 279.272727 279.272727 0 46.545455-13.963636 93.090909-32.581818 130.327273l69.818182 69.818182c32.581818-60.509091 55.854545-125.672727 55.854545-200.145455 0-204.8-167.563636-372.363636-372.363636-372.363636z m0 651.636363c-153.6 0-279.272727-125.672727-279.272727-279.272727 0-46.545455 13.963636-93.090909 32.581818-130.327273l-69.818182-69.818182C162.909091 372.363636 139.636364 437.527273 139.636364 512c0 204.8 167.563636 372.363636 372.363636 372.363636V1024l186.181818-186.181818-186.181818-186.181818v139.636363z"  />
    </symbol>
    <symbol id="icon-edit" viewBox="0 0 120 120">
        <path d="M96.84,2.22l22.42,22.42c2.96,2.96,2.96,7.8,0,10.76l-12.4,12.4L73.68,14.62l12.4-12.4 C89.04-0.74,93.88-0.74,96.84,2.22L96.84,2.22z M70.18,52.19L70.18,52.19l0,0.01c0.92,0.92,1.38,2.14,1.38,3.34 c0,1.2-0.46,2.41-1.38,3.34v0.01l-0.01,0.01L40.09,88.99l0,0h-0.01c-0.26,0.26-0.55,0.48-0.84,0.67h-0.01 c-0.3,0.19-0.61,0.34-0.93,0.45c-1.66,0.58-3.59,0.2-4.91-1.12h-0.01l0,0v-0.01c-0.26-0.26-0.48-0.55-0.67-0.84v-0.01 c-0.19-0.3-0.34-0.61-0.45-0.93c-0.58-1.66-0.2-3.59,1.11-4.91v-0.01l30.09-30.09l0,0h0.01c0.92-0.92,2.14-1.38,3.34-1.38 c1.2,0,2.41,0.46,3.34,1.38L70.18,52.19L70.18,52.19L70.18,52.19z M45.48,109.11c-8.98,2.78-17.95,5.55-26.93,8.33 C-2.55,123.97-2.46,128.32,3.3,108l9.07-32v0l-0.03-0.03L67.4,20.9l33.18,33.18l-55.07,55.07L45.48,109.11L45.48,109.11z M18.03,81.66l21.79,21.79c-5.9,1.82-11.8,3.64-17.69,5.45c-13.86,4.27-13.8,7.13-10.03-6.22L18.03,81.66L18.03,81.66z" fill="currentColor"></path>
    </symbol>
    <symbol id="icon-delete" viewBox="0 0 110 120">
        <path d="M2.347,9.633h38.297V3.76c0-2.068,1.689-3.76,3.76-3.76h21.144 c2.07,0,3.76,1.691,3.76,3.76v5.874h37.83c1.293,0,2.347,1.057,2.347,2.349v11.514H0V11.982C0,10.69,1.055,9.633,2.347,9.633 L2.347,9.633z M8.69,29.605h92.921c1.937,0,3.696,1.599,3.521,3.524l-7.864,86.229c-0.174,1.926-1.59,3.521-3.523,3.521h-77.3 c-1.934,0-3.352-1.592-3.524-3.521L5.166,33.129C4.994,31.197,6.751,29.605,8.69,29.605L8.69,29.605z M69.077,42.998h9.866v65.314 h-9.866V42.998L69.077,42.998z M30.072,42.998h9.867v65.314h-9.867V42.998L30.072,42.998z M49.572,42.998h9.869v65.314h-9.869 V42.998L49.572,42.998z" fill="currentColor"></path>
    </symbol>
</svg>