<svg xmlns="http://www.w3.org/2000/svg" style="display: none;">
    <symbol id="icon-reload" viewBox="0 0 1024 1024">
 		<path fill="currentColor" d="M512 139.636364V0l-186.181818 186.181818 186.181818 186.181818v-139.636363c153.6 0 279.272727 125.672727 279.272727 279.272727 0 46.545455-13.963636 93.090909-32.581818 130.327273l69.818182 69.818182c32.581818-60.509091 55.854545-125.672727 55.854545-200.145455 0-204.8-167.563636-372.363636-372.363636-372.363636z m0 651.636363c-153.6 0-279.272727-125.672727-279.272727-279.272727 0-46.545455 13.963636-93.090909 32.581818-130.327273l-69.818182-69.818182C162.909091 372.363636 139.636364 437.527273 139.636364 512c0 204.8 167.563636 372.363636 372.363636 372.363636V1024l186.181818-186.181818-186.181818-186.181818v139.636363z"  />
    </symbol>
    <symbol id="icon-edit" viewBox="-10 -10 130 130">
        <path d="M96.84,2.22l22.42,22.42c2.96,2.96,2.96,7.8,0,10.76l-12.4,12.4L73.68,14.62l12.4-12.4 C89.04-0.74,93.88-0.74,96.84,2.22L96.84,2.22z M70.18,52.19L70.18,52.19l0,0.01c0.92,0.92,1.38,2.14,1.38,3.34 c0,1.2-0.46,2.41-1.38,3.34v0.01l-0.01,0.01L40.09,88.99l0,0h-0.01c-0.26,0.26-0.55,0.48-0.84,0.67h-0.01 c-0.3,0.19-0.61,0.34-0.93,0.45c-1.66,0.58-3.59,0.2-4.91-1.12h-0.01l0,0v-0.01c-0.26-0.26-0.48-0.55-0.67-0.84v-0.01 c-0.19-0.3-0.34-0.61-0.45-0.93c-0.58-1.66-0.2-3.59,1.11-4.91v-0.01l30.09-30.09l0,0h0.01c0.92-0.92,2.14-1.38,3.34-1.38 c1.2,0,2.41,0.46,3.34,1.38L70.18,52.19L70.18,52.19L70.18,52.19z M45.48,109.11c-8.98,2.78-17.95,5.55-26.93,8.33 C-2.55,123.97-2.46,128.32,3.3,108l9.07-32v0l-0.03-0.03L67.4,20.9l33.18,33.18l-55.07,55.07L45.48,109.11L45.48,109.11z M18.03,81.66l21.79,21.79c-5.9,1.82-11.8,3.64-17.69,5.45c-13.86,4.27-13.8,7.13-10.03-6.22L18.03,81.66L18.03,81.66z" fill="currentColor"></path>
    </symbol>
    <symbol id="icon-delete" viewBox="-10 -10 120 130">
        <path d="M2.347,9.633h38.297V3.76c0-2.068,1.689-3.76,3.76-3.76h21.144 c2.07,0,3.76,1.691,3.76,3.76v5.874h37.83c1.293,0,2.347,1.057,2.347,2.349v11.514H0V11.982C0,10.69,1.055,9.633,2.347,9.633 L2.347,9.633z M8.69,29.605h92.921c1.937,0,3.696,1.599,3.521,3.524l-7.864,86.229c-0.174,1.926-1.59,3.521-3.523,3.521h-77.3 c-1.934,0-3.352-1.592-3.524-3.521L5.166,33.129C4.994,31.197,6.751,29.605,8.69,29.605L8.69,29.605z M69.077,42.998h9.866v65.314 h-9.866V42.998L69.077,42.998z M30.072,42.998h9.867v65.314h-9.867V42.998L30.072,42.998z M49.572,42.998h9.869v65.314h-9.869 V42.998L49.572,42.998z" fill="currentColor"></path>
    </symbol>
    <symbol id="icon-archive" viewBox="2 2 44 44">
    	<path d="M41.09 10.45l-2.77-3.36c-.56-.66-1.39-1.09-2.32-1.09h-24c-.93 0-1.76.43-2.31 1.09l-2.77 3.36c-.58.7-.92 1.58-.92 2.55v25c0 2.21 1.79 4 4 4h28c2.21 0 4-1.79 4-4v-25c0-.97-.34-1.85-.91-2.55zm-17.09 24.55l-11-11h7v-4h8v4h7l-11 11zm-13.75-25l1.63-2h24l1.87 2h-27.5z" fill="currentColor"/><path d="M0 0h48v48h-48z" fill="none"/>
    </symbol>
    <symbol id="icon-eye" viewBox="0 0 576 512">
    	<path fill="currentColor" d="M288 144a110.94 110.94 0 0 0-31.24 5 55.4 55.4 0 0 1 7.24 27 56 56 0 0 1-56 56 55.4 55.4 0 0 1-27-7.24A111.71 111.71 0 1 0 288 144zm284.52 97.4C518.29 135.59 410.93 64 288 64S57.68 135.64 3.48 241.41a32.35 32.35 0 0 0 0 29.19C57.71 376.41 165.07 448 288 448s230.32-71.64 284.52-177.41a32.35 32.35 0 0 0 0-29.19zM288 400c-98.65 0-189.09-55-237.93-144C98.91 167 189.34 112 288 112s189.09 55 237.93 144C477.1 345 386.66 400 288 400z"/>
    </symbol>
    <symbol id="icon-eye-off" viewBox="0 0 640 512">
    	<path fill="currentColor" d="M634 471L36 3.51A16 16 0 0 0 13.51 6l-10 12.49A16 16 0 0 0 6 41l598 467.49a16 16 0 0 0 22.49-2.49l10-12.49A16 16 0 0 0 634 471zM296.79 146.47l134.79 105.38C429.36 191.91 380.48 144 320 144a112.26 112.26 0 0 0-23.21 2.47zm46.42 219.07L208.42 260.16C210.65 320.09 259.53 368 320 368a113 113 0 0 0 23.21-2.46zM320 112c98.65 0 189.09 55 237.93 144a285.53 285.53 0 0 1-44 60.2l37.74 29.5a333.7 333.7 0 0 0 52.9-75.11 32.35 32.35 0 0 0 0-29.19C550.29 135.59 442.93 64 320 64c-36.7 0-71.71 7-104.63 18.81l46.41 36.29c18.94-4.3 38.34-7.1 58.22-7.1zm0 288c-98.65 0-189.08-55-237.93-144a285.47 285.47 0 0 1 44.05-60.19l-37.74-29.5a333.6 333.6 0 0 0-52.89 75.1 32.35 32.35 0 0 0 0 29.19C89.72 376.41 197.08 448 320 448c36.7 0 71.71-7.05 104.63-18.81l-46.41-36.28C359.28 397.2 339.89 400 320 400z"/>
    </symbol>
</svg>